<svg width="14" height="14" viewBox="0 0 14 14" fill="none" xmlns="http://www.w3.org/2000/svg">
<path d="M12.5627 10.4365H11.4642C11.3892 10.4365 11.3189 10.4694 11.272 10.5272C11.1627 10.66 11.0455 10.7881 10.922 10.91C10.4172 11.4153 9.81918 11.8181 9.1611 12.0959C8.47931 12.3839 7.74652 12.5316 7.00641 12.5303C6.25798 12.5303 5.53298 12.3834 4.85173 12.0959C4.19365 11.8181 3.59564 11.4153 3.09079 10.91C2.58503 10.4063 2.18175 9.80937 1.90329 9.15217C1.61423 8.47092 1.46891 7.74748 1.46891 6.99905C1.46891 6.25061 1.61579 5.52717 1.90329 4.84592C2.18141 4.18811 2.58141 3.59592 3.09079 3.08811C3.60016 2.5803 4.19235 2.1803 4.85173 1.90217C5.53298 1.61467 6.25798 1.4678 7.00641 1.4678C7.75485 1.4678 8.47985 1.61311 9.1611 1.90217C9.82048 2.1803 10.4127 2.5803 10.922 3.08811C11.0455 3.21155 11.1611 3.33967 11.272 3.47092C11.3189 3.52873 11.3908 3.56155 11.4642 3.56155H12.5627C12.6611 3.56155 12.722 3.45217 12.6674 3.36936C11.4689 1.50686 9.37204 0.274047 6.98923 0.280297C3.24548 0.289672 0.243914 3.32874 0.281414 7.0678C0.318914 10.7475 3.31579 13.7178 7.00641 13.7178C9.38298 13.7178 11.4705 12.4865 12.6674 10.6287C12.7205 10.5459 12.6611 10.4365 12.5627 10.4365ZM13.9517 6.90061L11.7345 5.15061C11.6517 5.08498 11.5314 5.14436 11.5314 5.24905V6.43655H6.62516C6.55641 6.43655 6.50016 6.4928 6.50016 6.56155V7.43655C6.50016 7.5053 6.55641 7.56155 6.62516 7.56155H11.5314V8.74905C11.5314 8.85373 11.6533 8.91311 11.7345 8.84748L13.9517 7.09748C13.9667 7.08579 13.9788 7.07085 13.9871 7.0538C13.9954 7.03674 13.9997 7.01802 13.9997 6.99905C13.9997 6.98008 13.9954 6.96135 13.9871 6.9443C13.9788 6.92724 13.9667 6.9123 13.9517 6.90061Z" fill="#595959"/>
</svg>
