<svg width="16" height="14" viewBox="0 0 16 14" fill="#8c8c8c" xmlns="http://www.w3.org/2000/svg">
<path d="M15.9528 6.2481C14.2471 2.6549 11.6687.8467 8.2123.8467c-3.4582 0-6.0348 1.8083-7.7405 5.4032a1.085 1.085 67.3059 000 .9266C2.1775 10.7697 4.7559 12.578 8.2123 12.578c3.4582 0 6.0348-1.8083 7.7405-5.4032.1385-.2915.1385-.6297 0-.9266zM8.2123 11.2825c-2.9022 0-5.0272-1.4718-6.526-4.5702C3.1851 3.614 5.3101 2.1421 8.2123 2.1421c2.9022 0 5.0272 1.4718 6.526 4.5702C13.2413 9.8107 11.1164 11.2825 8.2123 11.2825zm-.072-7.7369c-1.7489 0-3.1667 1.4178-3.1667 3.1667s1.4178 3.1667 3.1667 3.1667 3.1667-1.4178 3.1667-3.1667-1.4178-3.1667-3.1667-3.1667zm0 5.1819c-1.1138 0-2.0152-.9014-2.0152-2.0152s.9014-2.0152 2.0152-2.0152 2.0152.9014 2.0152 2.0152-.9014 2.0152-2.0152 2.0152z"></path>
</svg>
