<svg width="24" height="26" viewBox="0 0 24 26" fill="none" xmlns="http://www.w3.org/2000/svg">
<path d="M22.8286 20.8625C22.2391 19.4662 21.3836 18.1978 20.3098 17.1281C19.2393 16.0553 17.9712 15.2 16.5754 14.6094C16.5629 14.6031 16.5504 14.6 16.5379 14.5938C18.4848 13.1875 19.7504 10.8969 19.7504 8.3125C19.7504 4.03125 16.2817 0.5625 12.0004 0.5625C7.7192 0.5625 4.25044 4.03125 4.25044 8.3125C4.25044 10.8969 5.51607 13.1875 7.46294 14.5969C7.45044 14.6031 7.43795 14.6062 7.42545 14.6125C6.02545 15.2031 4.7692 16.05 3.69107 17.1313C2.61829 18.2018 1.76296 19.4699 1.17232 20.8656C0.592076 22.232 0.279138 23.697 0.250444 25.1812C0.24961 25.2146 0.25546 25.2478 0.26765 25.2788C0.27984 25.3099 0.298122 25.3382 0.321421 25.3621C0.344719 25.386 0.372561 25.4049 0.403307 25.4179C0.434053 25.4308 0.467081 25.4375 0.500444 25.4375H2.37544C2.51294 25.4375 2.62232 25.3281 2.62544 25.1938C2.68794 22.7812 3.65669 20.5219 5.36919 18.8094C7.14107 17.0375 9.4942 16.0625 12.0004 16.0625C14.5067 16.0625 16.8598 17.0375 18.6317 18.8094C20.3442 20.5219 21.3129 22.7812 21.3754 25.1938C21.3786 25.3313 21.4879 25.4375 21.6254 25.4375H23.5004C23.5338 25.4375 23.5668 25.4308 23.5976 25.4179C23.6283 25.4049 23.6562 25.386 23.6795 25.3621C23.7028 25.3382 23.7211 25.3099 23.7332 25.2788C23.7454 25.2478 23.7513 25.2146 23.7504 25.1812C23.7192 23.6875 23.4098 22.2344 22.8286 20.8625ZM12.0004 13.6875C10.5661 13.6875 9.21607 13.1281 8.20045 12.1125C7.18482 11.0969 6.62545 9.74687 6.62545 8.3125C6.62545 6.87813 7.18482 5.52812 8.20045 4.5125C9.21607 3.49687 10.5661 2.9375 12.0004 2.9375C13.4348 2.9375 14.7848 3.49687 15.8004 4.5125C16.8161 5.52812 17.3754 6.87813 17.3754 8.3125C17.3754 9.74687 16.8161 11.0969 15.8004 12.1125C14.7848 13.1281 13.4348 13.6875 12.0004 13.6875Z" fill="white"/>
</svg>
