<svg width="14" height="10" viewBox="0 0 14 10" fill="#595959" xmlns="http://www.w3.org/2000/svg">
<path d="M13.3281 0.298512L10.2156 0.673512C10.1124 0.686012 10.0687 0.812575 10.1421 0.886012L11.0687 1.81257L7.53745 5.34382L5.94682 3.75476C5.84839 3.65632 5.69057 3.65789 5.5937 3.75476L0.567135 8.78289C0.543872 8.80638 0.530823 8.83811 0.530823 8.87117C0.530823 8.90423 0.543872 8.93596 0.567135 8.95945L1.27026 9.6657C1.3187 9.71414 1.39839 9.71414 1.44682 9.6657L5.77026 5.34382L7.35932 6.93289C7.45776 7.02976 7.61557 7.02976 7.71245 6.93289L11.9531 2.69539L12.8796 3.62195C12.8962 3.63847 12.9171 3.65 12.94 3.65523C12.9628 3.66046 12.9867 3.65918 13.0088 3.65152C13.0309 3.64387 13.0505 3.63016 13.0652 3.61195C13.0799 3.59374 13.0893 3.57176 13.0921 3.54851L13.4671 0.436012C13.4781 0.356325 13.4093 0.287575 13.3281 0.298512Z" />
</svg>
