<svg width="14" height="15" viewBox="0 0 14 15" fill="#595959" xmlns="http://www.w3.org/2000/svg">
<path d="M13.45 9.77695L12.4266 8.90195C12.475 8.60508 12.5 8.30195 12.5 7.99883C12.5 7.6957 12.475 7.39258 12.4266 7.0957L13.45 6.2207C13.5272 6.15462 13.5825 6.0666 13.6084 5.96836C13.6344 5.87011 13.6298 5.76629 13.5953 5.6707L13.5813 5.63008C13.2995 4.84262 12.8776 4.11263 12.336 3.47539L12.3078 3.44258C12.2421 3.36532 12.1545 3.30978 12.0566 3.28328C11.9587 3.25678 11.8551 3.26057 11.7594 3.29414L10.4891 3.7457C10.0203 3.36133 9.49689 3.0582 8.93126 2.8457L8.68595 1.51758C8.66744 1.41764 8.61897 1.32571 8.54696 1.25398C8.47496 1.18225 8.38283 1.13414 8.28283 1.11602L8.24064 1.1082C7.42658 0.961328 6.57033 0.961328 5.75626 1.1082L5.71408 1.11602C5.61407 1.13414 5.52195 1.18225 5.44994 1.25398C5.37794 1.32571 5.32946 1.41764 5.31095 1.51758L5.06408 2.85195C4.50297 3.0645 3.98043 3.36746 3.5172 3.74883L2.23752 3.29414C2.14184 3.2603 2.03813 3.25638 1.94016 3.28289C1.8422 3.3094 1.75463 3.3651 1.68908 3.44258L1.66095 3.47539C1.11993 4.11308 0.698103 4.84295 0.41564 5.63008L0.401578 5.6707C0.331265 5.86602 0.389078 6.08477 0.54689 6.2207L1.58283 7.10508C1.53439 7.39883 1.51095 7.69883 1.51095 7.99727C1.51095 8.29727 1.53439 8.59727 1.58283 8.88945L0.54689 9.77383C0.469696 9.83991 0.414447 9.92793 0.38849 10.0262C0.362533 10.1244 0.367098 10.2282 0.401578 10.3238L0.41564 10.3645C0.698453 11.152 1.1172 11.8785 1.66095 12.5191L1.68908 12.552C1.75479 12.6292 1.84237 12.6848 1.94027 12.7113C2.03817 12.7378 2.14181 12.734 2.23752 12.7004L3.5172 12.2457C3.98283 12.6285 4.50314 12.9316 5.06408 13.1426L5.31095 14.477C5.32946 14.5769 5.37794 14.6688 5.44994 14.7406C5.52195 14.8123 5.61407 14.8604 5.71408 14.8785L5.75626 14.8863C6.57781 15.034 7.4191 15.034 8.24064 14.8863L8.28283 14.8785C8.38283 14.8604 8.47496 14.8123 8.54696 14.7406C8.61897 14.6688 8.66744 14.5769 8.68595 14.477L8.93126 13.1488C9.49666 12.9369 10.0231 12.6328 10.4891 12.2488L11.7594 12.7004C11.8551 12.7342 11.9588 12.7382 12.0567 12.7116C12.1547 12.6851 12.2423 12.6294 12.3078 12.552L12.336 12.5191C12.8797 11.877 13.2985 11.152 13.5813 10.3645L13.5953 10.3238C13.6656 10.1316 13.6078 9.91289 13.45 9.77695ZM11.3172 7.28008C11.3563 7.51602 11.3766 7.7582 11.3766 8.00039C11.3766 8.24258 11.3563 8.48477 11.3172 8.7207L11.2141 9.34727L12.3813 10.3457C12.2043 10.7533 11.981 11.1392 11.7156 11.4957L10.2656 10.9816L9.77501 11.3848C9.40158 11.691 8.98595 11.9316 8.53595 12.1004L7.94064 12.3238L7.66095 13.8395C7.21966 13.8895 6.77412 13.8895 6.33283 13.8395L6.05314 12.3207L5.46251 12.0941C5.0172 11.9254 4.60314 11.6848 4.23283 11.3801L3.7422 10.9754L2.28283 11.4941C2.0172 11.1363 1.79533 10.7504 1.6172 10.3441L2.79689 9.33633L2.69533 8.71133C2.65783 8.47852 2.63752 8.23789 2.63752 8.00039C2.63752 7.76133 2.65627 7.52227 2.69533 7.28945L2.79689 6.66445L1.6172 5.65664C1.79377 5.24883 2.0172 4.86445 2.28283 4.50664L3.7422 5.02539L4.23283 4.6207C4.60314 4.31602 5.0172 4.07539 5.46251 3.90664L6.0547 3.6832L6.33439 2.16445C6.77345 2.11445 7.22189 2.11445 7.66252 2.16445L7.9422 3.68008L8.53751 3.90352C8.98595 4.07227 9.40314 4.31289 9.77658 4.61914L10.2672 5.02227L11.7172 4.5082C11.9828 4.86602 12.2047 5.25195 12.3828 5.6582L11.2156 6.65664L11.3172 7.28008ZM7.00001 5.09414C5.48127 5.09414 4.25002 6.32539 4.25002 7.84414C4.25002 9.36289 5.48127 10.5941 7.00001 10.5941C8.51876 10.5941 9.75001 9.36289 9.75001 7.84414C9.75001 6.32539 8.51876 5.09414 7.00001 5.09414ZM8.23751 9.08164C8.07521 9.24442 7.88231 9.3735 7.66994 9.46145C7.45756 9.5494 7.22989 9.5945 7.00001 9.59414C6.53283 9.59414 6.09376 9.41133 5.76251 9.08164C5.59974 8.91933 5.47066 8.72644 5.38271 8.51406C5.29475 8.30168 5.24966 8.07401 5.25001 7.84414C5.25001 7.37695 5.43283 6.93789 5.76251 6.60664C6.09376 6.27539 6.53283 6.09414 7.00001 6.09414C7.4672 6.09414 7.90626 6.27539 8.23751 6.60664C8.40029 6.76895 8.52937 6.96184 8.61732 7.17422C8.70528 7.3866 8.75037 7.61427 8.75001 7.84414C8.75001 8.31133 8.5672 8.75039 8.23751 9.08164Z" />
</svg>
