<svg width="16" height="14" viewBox="0 0 16 14" fill="none" xmlns="http://www.w3.org/2000/svg">
<path d="M15.5622 6.54687C14.9442 5.24503 14.2089 4.18331 13.3561 3.36171L12.4617 4.25609C13.1911 4.95306 13.8263 5.86484 14.3756 7.00038C12.9131 10.0273 10.8372 11.4652 8.00005 11.4652C7.14845 11.4652 6.36406 11.3341 5.64687 11.0718L4.67779 12.0409C5.67388 12.5009 6.7813 12.7309 8.00005 12.7309C11.3786 12.7309 13.8993 10.9713 15.5622 7.45214C15.629 7.31061 15.6637 7.15603 15.6637 6.99951C15.6637 6.84298 15.629 6.6884 15.5622 6.54687ZM14.4447 0.910618L13.6954 0.160384C13.6823 0.147309 13.6668 0.136937 13.6497 0.12986C13.6327 0.122783 13.6144 0.119141 13.5959 0.119141C13.5774 0.119141 13.5591 0.122783 13.542 0.12986C13.525 0.136937 13.5094 0.147309 13.4964 0.160384L11.5739 2.08202C10.5139 1.54062 9.32263 1.26992 8.00005 1.26992C4.62154 1.26992 2.10084 3.02949 0.437946 6.54863C0.371106 6.69016 0.336441 6.84474 0.336441 7.00126C0.336441 7.15779 0.371106 7.31237 0.437946 7.4539C1.10228 8.85312 1.90209 9.97466 2.83736 10.8185L0.977243 12.6781C0.950891 12.7045 0.936088 12.7402 0.936088 12.7775C0.936088 12.8148 0.950891 12.8506 0.977243 12.8769L1.72765 13.6273C1.75402 13.6537 1.78978 13.6685 1.82706 13.6685C1.86434 13.6685 1.90009 13.6537 1.92646 13.6273L14.4447 1.1096C14.4578 1.09654 14.4682 1.08103 14.4752 1.06396C14.4823 1.04689 14.486 1.02859 14.486 1.01011C14.486 0.99163 14.4823 0.973331 14.4752 0.95626C14.4682 0.939188 14.4578 0.923679 14.4447 0.910618ZM1.62447 7.00038C3.08873 3.97343 5.1647 2.53554 8.00005 2.53554C8.95877 2.53554 9.83047 2.70007 10.6213 3.03458L9.38556 4.27033C8.80033 3.95807 8.13023 3.84219 7.47413 3.93976C6.81802 4.03734 6.21064 4.3432 5.7416 4.81224C5.27256 5.28129 4.96669 5.88866 4.86912 6.54477C4.77155 7.20088 4.88743 7.87097 5.19968 8.4562L3.73332 9.92257C2.92173 9.20626 2.22213 8.23577 1.62447 7.00038ZM5.96099 7.00038C5.9613 6.69042 6.03472 6.3849 6.17529 6.10864C6.31586 5.83238 6.51961 5.59318 6.76999 5.41046C7.02038 5.22774 7.31033 5.10666 7.6163 5.05706C7.92227 5.00745 8.23563 5.03072 8.53091 5.12497L6.05433 7.60156C5.99226 7.40721 5.96077 7.2044 5.96099 7.00038Z" fill="#8C8C8C"/>
</svg>
